<svg width="156" height="32" viewBox="0 0 156 32" fill="none" xmlns="http://www.w3.org/2000/svg">
<path d="M13.3084 26.7591C13.193 28.0064 12.6739 29.2867 11.6901 30.0815C9.9631 31.4753 5.3044 32.4001 3.42741 31.0705C2.30022 30.2724 2.90996 28.9181 4.46395 29.1732C5.83668 29.3986 5.04403 31.8324 7.44341 31.1462C9.23801 30.6328 9.39951 28.2039 9.4819 26.6406C9.75052 21.592 9.28415 16.2965 9.46213 11.2216C9.2825 9.8837 8.90677 8.94079 7.62139 8.36977C7.20117 8.18382 5.83998 7.99787 5.77736 7.92711C5.72957 7.87445 5.79054 7.56838 5.77076 7.44167C9.69613 7.59471 13.783 7.24584 17.7034 7.43673C18.9707 7.49762 20.4093 7.64737 21.5892 8.12294C25.7157 9.78661 25.7074 15.6877 21.8447 17.6294L20.6038 18.1774C21.9337 18.4901 23.1564 18.6925 24.3001 19.4856C26.4144 20.9551 27.2103 23.7263 26.7852 26.2012C31.3318 21.6726 32.1904 14.1836 28.9852 8.63636C24.3182 0.569739 13.3677 -1.40002 6.2602 4.789C-1.11429 11.2084 -0.295269 22.3127 7.38244 28.1101C8.03996 28.6054 9.14243 28.7486 8.47337 29.7096C8.18663 30.121 7.73674 29.6849 7.38574 29.4661C-6.44205 20.8416 0.462779 -0.942545 17.2074 0.0316366C30.2162 0.788602 36.531 16.6026 28.2617 26.3855C24.4566 30.8862 18.206 32.8839 12.4432 31.6349C12.2455 31.4638 13.31 30.6854 13.4996 30.6459C15.1986 30.8961 16.9586 30.9751 18.651 30.6147C24.6033 29.3492 23.6294 18.9229 17.5732 18.9229H13.3084C13.137 21.4488 13.5375 24.2693 13.3084 26.7607V26.7591ZM13.3084 18.1823C14.5806 18.314 16.2681 18.2416 17.5073 17.8697C21.9749 16.5318 21.2679 8.9556 16.7756 8.23977C15.4688 8.03243 14.1505 8.33192 13.6182 9.66649C13.521 9.91003 13.3084 10.7509 13.3084 10.9616V18.1823Z" fill="#FEFEFE"/>
<path d="M153.806 5.8457V12.5631H153.276C153.104 11.2741 152.793 10.2476 152.345 9.48371C151.905 8.71983 151.275 8.11349 150.454 7.66471C149.633 7.21592 148.783 6.99153 147.905 6.99153C146.911 6.99153 146.09 7.29709 145.441 7.9082C144.792 8.50976 144.467 9.19725 144.467 9.97069C144.467 10.5627 144.672 11.1022 145.083 11.5892C145.675 12.3053 147.083 13.2602 149.308 14.4537C151.122 15.4277 152.359 16.1773 153.018 16.7024C153.686 17.2181 154.197 17.8292 154.55 18.5358C154.913 19.2424 155.095 19.9824 155.095 20.7558C155.095 22.2263 154.522 23.4963 153.376 24.5657C152.24 25.6256 150.774 26.1555 148.979 26.1555C148.415 26.1555 147.885 26.1126 147.389 26.0266C147.093 25.9789 146.477 25.807 145.541 25.511C144.615 25.2054 144.028 25.0527 143.78 25.0527C143.541 25.0527 143.35 25.1243 143.207 25.2675C143.073 25.4107 142.973 25.7067 142.906 26.1555H142.376V19.4954H142.906C143.154 20.8895 143.488 21.9351 143.908 22.6321C144.329 23.3196 144.968 23.8925 145.828 24.3508C146.697 24.8092 147.647 25.0383 148.678 25.0383C149.872 25.0383 150.812 24.7232 151.5 24.093C152.197 23.4628 152.545 22.718 152.545 21.8587C152.545 21.3812 152.411 20.899 152.144 20.4121C151.886 19.9251 151.48 19.4715 150.927 19.0514C150.554 18.7649 149.537 18.1586 147.876 17.2324C146.214 16.2966 145.03 15.5518 144.324 14.998C143.627 14.4442 143.097 13.8331 142.734 13.1647C142.371 12.4963 142.19 11.761 142.19 10.959C142.19 9.56487 142.724 8.36653 143.794 7.36393C144.863 6.35178 146.224 5.8457 147.876 5.8457C148.907 5.8457 150 6.09874 151.156 6.60481C151.691 6.84353 152.068 6.96289 152.287 6.96289C152.536 6.96289 152.736 6.89127 152.889 6.74804C153.051 6.59527 153.18 6.29449 153.276 5.8457H153.806Z" fill="#FEFEFE"/>
<path d="M119.66 25.7114V25.1814H120.39C121.211 25.1814 121.794 24.9188 122.138 24.3937C122.348 24.0786 122.453 23.372 122.453 22.2739V9.72704C122.453 8.51437 122.319 7.75526 122.052 7.4497C121.679 7.02957 121.125 6.8195 120.39 6.8195H119.66V6.28955H127.566C130.469 6.28955 132.675 6.61898 134.183 7.27783C135.701 7.93668 136.919 9.03477 137.836 10.5721C138.762 12.1094 139.225 13.8854 139.225 15.9002C139.225 18.6024 138.404 20.8607 136.761 22.6749C134.918 24.6992 132.111 25.7114 128.339 25.7114H119.66ZM125.203 24.3077C126.415 24.5751 127.432 24.7088 128.254 24.7088C130.469 24.7088 132.307 23.9305 133.768 22.3741C135.229 20.8177 135.959 18.7075 135.959 16.0434C135.959 13.3603 135.229 11.2453 133.768 9.69839C132.307 8.15152 130.431 7.37809 128.139 7.37809C127.28 7.37809 126.301 7.51654 125.203 7.79345V24.3077Z" fill="#FEFEFE"/>
<path d="M97.5739 6.28955H102.845L114.718 20.8559V9.65543C114.718 8.46185 114.585 7.71706 114.317 7.42106C113.964 7.02002 113.405 6.8195 112.642 6.8195H111.968V6.28955H118.729V6.8195H118.041C117.22 6.8195 116.638 7.06776 116.294 7.56429C116.084 7.86984 115.979 8.56689 115.979 9.65543V26.0265H115.463L102.659 10.3859V22.3455C102.659 23.5391 102.787 24.2838 103.045 24.5799C103.408 24.9809 103.967 25.1814 104.721 25.1814H105.409V25.7114H98.6482V25.1814H99.3213C100.152 25.1814 100.739 24.9332 101.083 24.4366C101.293 24.1311 101.398 23.434 101.398 22.3455V8.83902C100.835 8.18017 100.405 7.74571 100.109 7.53564C99.8226 7.32557 99.3977 7.12983 98.8344 6.9484C98.5574 6.86247 98.1373 6.8195 97.5739 6.8195V6.28955Z" fill="#FEFEFE"/>
<path d="M86.1586 7.34944V15.0265H90.4268C91.5345 15.0265 92.2745 14.8594 92.6469 14.5252C93.1434 14.086 93.4203 13.3125 93.4776 12.2049H94.0076V18.9653H93.4776C93.3439 18.02 93.2103 17.4136 93.0766 17.1463C92.9047 16.8121 92.623 16.5495 92.2315 16.3585C91.84 16.1676 91.2385 16.0721 90.4268 16.0721H86.1586V22.4744C86.1586 23.3338 86.1968 23.8589 86.2732 24.0499C86.3496 24.2313 86.4833 24.3793 86.6743 24.4939C86.8652 24.5989 87.2281 24.6515 87.7628 24.6515H91.0571C92.1551 24.6515 92.9524 24.5751 93.449 24.4223C93.9455 24.2695 94.4229 23.9687 94.8813 23.52C95.4733 22.9279 96.0796 22.0352 96.7003 20.8416H97.2732L95.5974 25.7114H80.63V25.1814H81.3175C81.7758 25.1814 82.2103 25.0716 82.6209 24.852C82.9264 24.6992 83.1317 24.47 83.2368 24.1645C83.3514 23.8589 83.4086 23.2335 83.4086 22.2882V9.66975C83.4086 8.43798 83.2845 7.67887 83.0362 7.39241C82.6925 7.01047 82.1196 6.8195 81.3175 6.8195H80.63V6.28955H95.5974L95.8122 10.5434H95.2537C95.0531 9.52174 94.8287 8.81992 94.5805 8.43798C94.3418 8.05604 93.9837 7.76481 93.5063 7.56429C93.1243 7.42106 92.4511 7.34944 91.4867 7.34944H86.1586Z" fill="#FEFEFE"/>
<path d="M79.3123 25.1814V25.7114H70.9907V25.1814H71.6782C72.4803 25.1814 73.0627 24.9475 73.4256 24.4796C73.6547 24.174 73.7693 23.4388 73.7693 22.2739V9.72704C73.7693 8.74354 73.7073 8.09423 73.5831 7.77913C73.4876 7.54041 73.2919 7.33512 72.9959 7.16325C72.5758 6.93408 72.1365 6.8195 71.6782 6.8195H70.9907V6.28955H79.3123V6.8195H78.6105C77.8179 6.8195 77.2402 7.05344 76.8774 7.52132C76.6387 7.82687 76.5193 8.56211 76.5193 9.72704V22.2739C76.5193 23.2574 76.5814 23.9067 76.7055 24.2218C76.801 24.4605 77.0015 24.6658 77.3071 24.8377C77.7177 25.0668 78.1521 25.1814 78.6105 25.1814H79.3123Z" fill="#FEFEFE"/>
<path d="M70.5181 25.7114H65.3332L58.759 16.6307C58.272 16.6498 57.8757 16.6593 57.5702 16.6593C57.446 16.6593 57.3124 16.6593 57.1691 16.6593C57.0259 16.6498 56.8779 16.6402 56.7251 16.6307V22.2739C56.7251 23.4961 56.8588 24.2552 57.1262 24.5512C57.489 24.9713 58.0333 25.1814 58.759 25.1814H59.5181V25.7114H51.1965V25.1814H51.927C52.7481 25.1814 53.3354 24.9141 53.6887 24.3793C53.8892 24.0833 53.9895 23.3815 53.9895 22.2739V9.72704C53.9895 8.50482 53.8558 7.74571 53.5884 7.4497C53.216 7.02957 52.6622 6.8195 51.927 6.8195H51.1965V6.28955H58.272C60.3345 6.28955 61.8527 6.44233 62.8267 6.74788C63.8102 7.04389 64.6409 7.59771 65.3188 8.40934C66.0063 9.21142 66.3501 10.171 66.3501 11.2882C66.3501 12.4818 65.9586 13.5178 65.1756 14.3963C64.4022 15.2748 63.1991 15.8954 61.5663 16.2583L65.5767 21.8299C66.4933 23.1094 67.2811 23.9592 67.9399 24.3793C68.5988 24.7995 69.4582 25.0668 70.5181 25.1814V25.7114ZM56.7251 15.7283C56.9066 15.7283 57.0641 15.7331 57.1978 15.7426C57.3315 15.7426 57.4413 15.7426 57.5272 15.7426C59.3796 15.7426 60.7737 15.3416 61.7095 14.5395C62.6548 13.7374 63.1274 12.7157 63.1274 11.4744C63.1274 10.2618 62.7455 9.27826 61.9816 8.52392C61.2273 7.76003 60.2247 7.37809 58.9738 7.37809C58.42 7.37809 57.6704 7.4688 56.7251 7.65022V15.7283Z" fill="#FEFEFE"/>
<path d="M40.3684 7.34944V14.9835H43.9062C44.7178 14.9835 45.3098 14.8069 45.6822 14.4536C46.0641 14.0907 46.3172 13.3794 46.4413 12.3195H46.9713V18.8937H46.4413C46.4318 18.1393 46.3315 17.5855 46.1405 17.2322C45.9591 16.8789 45.7013 16.6163 45.3671 16.4445C45.0424 16.263 44.5555 16.1723 43.9062 16.1723H40.3684V22.2739C40.3684 23.2574 40.4305 23.9067 40.5546 24.2218C40.6501 24.4605 40.8506 24.6658 41.1562 24.8377C41.5763 25.0668 42.0155 25.1814 42.4739 25.1814H43.1757V25.7114H34.8398V25.1814H35.5273C36.3294 25.1814 36.9118 24.9475 37.2747 24.4796C37.5038 24.174 37.6184 23.4388 37.6184 22.2739V9.72704C37.6184 8.74354 37.5564 8.09423 37.4322 7.77913C37.3367 7.54041 37.141 7.33512 36.845 7.16325C36.4344 6.93408 35.9952 6.8195 35.5273 6.8195H34.8398V6.28955H49.2916L49.4778 10.5578H48.9765C48.7282 9.65065 48.437 8.98702 48.1028 8.56689C47.7781 8.1372 47.3723 7.82687 46.8853 7.6359C46.4079 7.44493 45.6631 7.34944 44.6509 7.34944H40.3684Z" fill="#FEFEFE"/>
</svg>
